<svg width="48" height="48" viewBox="0 0 48 48" fill="none" xmlns="http://www.w3.org/2000/svg">
<path fill-rule="evenodd" clip-rule="evenodd" d="M6 9C6 7.34315 7.34315 6 9 6H39C40.6569 6 42 7.34315 42 9V39C42 40.6569 40.6569 42 39 42H33V34.0652C33 32.1401 33.998 30.3926 35.2581 28.9372C36.2551 27.7856 37.0293 26.4709 37.479 25.0637C38.2281 22.7193 38.1681 20.2166 37.3074 17.9054C36.4467 15.5941 34.8282 13.5898 32.6782 12.1724C30.5282 10.7551 27.9541 9.99559 25.3155 10C22.5889 10.0195 19.9402 10.8451 17.7552 12.3566C15.5701 13.868 13.9628 15.9864 13.1674 18.4032C12.9107 19.3016 12.6255 21.9441 12.6255 21.9441C12.1693 23.0804 11.6845 24.1902 11.1997 25.3001L10.5153 26.912C10.2599 27.3486 10.0863 27.8221 10.002 28.3125C9.98345 28.6382 10.0955 28.9586 10.3166 29.2123C10.5377 29.466 10.8523 29.6349 11.1997 29.6866C11.3138 29.6866 14 30 14 30V33C14 34 14.6 36 17 36H19V42H9C7.34315 42 6 40.6569 6 39V9ZM13 28.9C13 26.9 16 23 20.5 23C22.2112 23 23.3169 23.7795 24.1889 24.3943C24.7567 24.7946 25.2254 25.125 25.6977 25.125C26.6187 25.125 27.3566 24.8376 27.9146 24.4822C28.4902 24.1155 29.3526 24.2052 29.6578 24.8157C29.8566 25.2131 29.7455 25.6958 29.389 25.9609C29.3327 26.0028 29.2771 26.0441 29.2224 26.0847C27.5086 27.3569 26.5814 28.0451 26.5814 30.65V42H24V35.5C24 33.673 22.9313 31.9832 21.1508 31.5739C19.2865 31.1453 16.8607 30.9368 15.0001 32V30C17.6848 28.6576 20.8202 29.1172 22.5917 29.5646C23.2776 29.7379 23.965 29.2022 23.5959 28.5987C22.8255 27.339 21.0404 26.5 19 26.5C15.4651 26.5 14 29 14 29L13 28.9Z" fill="#2273FF"/>
<path fill-rule="evenodd" clip-rule="evenodd" d="M28.7391 22.6733C28.7366 22.676 28.7341 22.6788 28.7315 22.6815C28.7315 22.6816 28.7308 22.6823 28.7315 22.6815C28.7318 22.6812 28.7325 22.6804 28.7329 22.68L28.7357 22.677L28.7375 22.675L28.7391 22.6733ZM27.9997 22C27.2598 21.3273 27.26 21.327 27.2603 21.3267L27.2622 21.3246L27.2651 21.3215L27.2718 21.3143L27.2897 21.2954C27.3035 21.2811 27.3212 21.2631 27.3428 21.242C27.3858 21.1999 27.4444 21.1453 27.5182 21.0824C27.6654 20.9571 27.8761 20.7965 28.1471 20.6375C28.6898 20.3191 29.488 20 30.4997 20C32.3213 20 33.9997 21.5108 33.9997 24.05C33.9997 26.1829 33.0437 27.6834 31.9499 28.6308C31.4106 29.098 30.838 29.4321 30.3258 29.6518C29.8371 29.8614 29.3259 30 28.9088 30C28.3565 30 27.9088 29.5523 27.9088 29C27.9088 28.4477 28.3565 28 28.9088 28C28.9085 28 28.9085 28 28.9088 28C28.9109 27.9999 28.9271 27.9993 28.9591 27.9946C28.9946 27.9894 29.042 27.9802 29.1007 27.9654C29.2188 27.9356 29.3678 27.8865 29.5373 27.8138C29.8773 27.6679 30.2706 27.4395 30.6404 27.1192C31.3648 26.4916 31.9997 25.5171 31.9997 24.05C31.9997 22.4892 31.0946 22 30.4997 22C29.9205 22 29.4687 22.1809 29.1591 22.3625C29.004 22.4535 28.8879 22.5429 28.815 22.6051C28.7787 22.636 28.7539 22.6594 28.741 22.672L28.7315 22.6815C28.359 23.0817 27.7327 23.1088 27.327 22.7399C26.9184 22.3684 26.8888 21.7353 27.2603 21.3267L27.9997 22Z" fill="#2273FF"/>
</svg>
