<svg width="36" height="36" viewBox="0 0 36 36" fill="none" xmlns="http://www.w3.org/2000/svg">
<path fill-rule="evenodd" clip-rule="evenodd" d="M3 0C1.34315 0 0 1.34315 0 3V33C0 34.6569 1.34315 36 3 36H33C34.6569 36 36 34.6569 36 33V3C36 1.34315 34.6569 0 33 0H3ZM4.4891 9.915C4.0046 10.3998 3.87088 10.9737 4.1503 11.4661C4.4912 12.067 4.8706 12.5927 5.2286 13.0292C4.8763 13.0809 4.565 13.2326 4.3282 13.4907C4.0699 13.7723 3.93244 14.1457 3.90679 14.5645C3.42674 14.0081 2.88947 13.2969 2.41074 12.4531C1.53681 10.9127 2.19966 9.3765 3.07455 8.5012C3.51812 8.0574 4.081 7.705 4.6779 7.5523C5.2744 7.3997 6.031 7.4264 6.6328 7.9567C7.6775 8.8774 8.1601 8.9569 8.422 8.9821C8.4667 8.9864 8.5258 8.9874 8.5972 8.9885C8.968 8.9947 9.6693 9.0062 10.3923 9.516L9.2399 11.1506C9.0474 11.0149 9.0096 11.0137 8.7805 11.0069C8.6631 11.0034 8.4953 10.9984 8.2307 10.9729C7.4387 10.8968 6.5798 10.5722 5.3266 9.4714C5.3053 9.4685 5.2584 9.4682 5.1736 9.4899C4.9828 9.5387 4.7252 9.6788 4.4891 9.915ZM5.341 9.4754C5.3407 9.4758 5.3374 9.4752 5.3317 9.4723C5.3384 9.4736 5.3412 9.475 5.341 9.4754ZM9.2854 15.0096C10.6034 16.2601 10.971 17.9692 10.1064 18.8269C9.2419 19.6847 7.4726 19.3663 6.1546 18.1158C4.8366 16.8653 4.469 15.1562 5.3336 14.2985C6.1982 13.4407 7.9674 13.7591 9.2854 15.0096ZM31.0393 9.8905C31.4842 10.367 31.6325 10.9677 31.355 11.4913C31.044 12.0782 30.699 12.5929 30.3721 13.0226C30.7203 13.0669 31.0282 13.2204 31.2598 13.4907C31.5123 13.7855 31.6412 14.1807 31.6561 14.6234C32.1221 14.0545 32.6526 13.3139 33.1221 12.4279C33.922 10.9186 33.3262 9.4092 32.5012 8.5256C32.0849 8.0798 31.5479 7.716 30.9659 7.5566C30.3757 7.395 29.6243 7.4269 29.0385 7.9796C28.0649 8.8981 27.6318 8.9612 27.4227 8.9827C27.3873 8.9864 27.3378 8.9871 27.2764 8.988C26.9376 8.9931 26.2352 9.0036 25.531 9.5351L26.7359 11.1314C26.8927 11.0131 26.904 11.0128 27.089 11.0077C27.1937 11.0048 27.3539 11.0004 27.6275 10.9722C28.3973 10.893 29.2113 10.5564 30.3714 9.4715C30.3866 9.4734 30.4082 9.4775 30.4376 9.4856C30.5914 9.5277 30.8207 9.6564 31.0393 9.8905ZM30.3421 9.4707C30.3424 9.471 30.3455 9.4711 30.351 9.4698C30.3446 9.4698 30.3419 9.4704 30.3421 9.4707ZM26.1515 15.0096C24.8335 16.2601 24.4659 17.9692 25.3304 18.8269C26.195 19.6847 27.9643 19.3663 29.2823 18.1158C30.6003 16.8653 30.9678 15.1562 30.1033 14.2985C29.2387 13.4407 27.4694 13.7591 26.1515 15.0096ZM14.0472 16.0426C11.3386 16.0426 7.2757 8 18.1101 8C28.9445 8 24.4301 16.0426 21.7215 16.0426C20.4316 16.0426 20.3323 18.9812 20.2281 22.0595C20.1509 24.344 20.071 26.7055 19.5 28C19.3212 28.4053 19.0154 28.2841 18.6755 28.1493C18.4921 28.0766 18.2987 28 18.1101 28C17.9305 28 17.7245 28.0695 17.5188 28.1389C17.1079 28.2775 16.6979 28.4158 16.5 28C15.8767 26.6904 15.7524 24.2886 15.633 21.9793C15.4753 18.9303 15.3259 16.0426 14.0472 16.0426Z" fill="#2273FF"/>
</svg>
