<svg width="48" height="48" viewBox="0 0 48 48" fill="none" xmlns="http://www.w3.org/2000/svg">
<path d="M15.8683 31.929C11.8047 27.8654 11.4177 21.5165 14.7082 17.0184L28.7379 25.3859L28.1576 23.0646C27.8897 21.993 26.8038 21.3416 25.7322 21.6094C24.6606 21.8773 24.0092 22.9632 24.277 24.0348L24.277 24.0348L24.3327 24.2575C23.6324 23.0668 22.342 22.2996 20.909 22.2996H20.2715C19.1955 22.2996 18.6567 20.9987 19.4175 20.2379L19.4176 20.2378C21.5793 18.076 20.3161 14.8008 17.8903 14.0514C22.3316 11.2615 28.2658 11.7997 32.1317 15.6656C36.6228 20.1566 36.6228 27.438 32.1317 31.929C27.6407 36.4201 20.3593 36.4201 15.8683 31.929ZM25.8639 29.4378L25.7004 28.8248C25.8449 28.9902 26.0155 29.1304 26.2047 29.2401C26.0953 29.3081 25.9818 29.3742 25.8639 29.4378ZM6.5 9C6.5 7.61929 7.61929 6.5 9 6.5H39C40.3808 6.5 41.5 7.61929 41.5 9V39C41.5 40.3808 40.3808 41.5 39 41.5H9C7.61929 41.5 6.5 40.3808 6.5 39V9ZM13.7469 34.0504C19.4095 39.7129 28.5905 39.7129 34.2531 34.0504C39.9156 28.3877 39.9156 19.2068 34.2531 13.5442C28.5905 7.88163 19.4095 7.88163 13.7469 13.5442C8.08434 19.2068 8.08436 28.3877 13.7469 34.0504Z" fill="#2273FF" stroke="white"/>
</svg>
