<svg width="48" height="48" viewBox="0 0 48 48" fill="none" xmlns="http://www.w3.org/2000/svg">
<path d="M20.5918 11.3091C24.7234 12.082 27.4424 12.091 31.5725 11.3118C32.4747 11.1416 33.333 11.8245 33.333 12.7595C33.333 13.0169 33.5417 13.2256 33.7992 13.2256H34.083C34.9114 13.2256 35.583 13.8972 35.583 14.7256V15.5996C35.583 16.4279 34.9115 17.0996 34.083 17.0996H33.833C33.5569 17.0996 33.333 17.3235 33.333 17.5996V17.9865C33.333 18.6654 32.8745 19.2663 32.2087 19.4328L20.5918 11.3091ZM20.5918 11.3091C19.6895 11.1402 18.833 11.8241 18.833 12.7581M20.5918 11.3091L18.833 12.7581M18.833 12.7581C18.833 13.0163 18.6237 13.2256 18.3655 13.2256H18.083C17.2546 13.2256 16.583 13.8972 16.583 14.7256V15.5996C16.583 16.4279 17.2545 17.0996 18.083 17.0996H18.333C18.6092 17.0996 18.833 17.3235 18.833 17.5996V17.9776C18.833 18.6629 19.3001 19.267 19.9727 19.4284C24.7177 20.5676 27.6616 20.57 32.2087 19.4328L18.833 12.7581ZM20.5919 20.3091C19.6895 20.1402 18.833 20.824 18.833 21.7581C18.833 22.0163 18.6237 22.2256 18.3655 22.2256H18.083C17.2546 22.2256 16.583 22.8972 16.583 23.7256V24.5996C16.583 25.4279 17.2545 26.0996 18.083 26.0996H18.333C18.6092 26.0996 18.833 26.3235 18.833 26.5996V26.9776C18.833 27.6629 19.3001 28.267 19.9727 28.4284M20.5919 20.3091L20.4999 20.8005L20.5919 20.3091ZM20.5919 20.3091C24.7235 21.082 27.4424 21.091 31.5725 20.3118C32.4747 20.1416 33.333 20.8245 33.333 21.7595C33.333 22.0169 33.5417 22.2256 33.7992 22.2256H34.083C34.9114 22.2256 35.583 22.8972 35.583 23.7256V24.5996C35.583 25.4279 34.9115 26.0996 34.083 26.0996H33.833C33.5569 26.0996 33.333 26.3235 33.333 26.5996V26.9865C33.333 27.6654 32.8745 28.2663 32.2087 28.4328C27.6616 29.57 24.7177 29.5676 19.9727 28.4284M19.9727 28.4284L20.0894 27.9422L19.9727 28.4284ZM19.9727 37.4284C24.7177 38.5676 27.6616 38.57 32.2087 37.4328C32.8745 37.2663 33.333 36.6654 33.333 35.9865V35.5996C33.333 35.3235 33.5569 35.0996 33.833 35.0996H34.083C34.9115 35.0996 35.583 34.4279 35.583 33.5996V32.7256C35.583 31.8972 34.9114 31.2256 34.083 31.2256H33.7992C33.5417 31.2256 33.333 31.0169 33.333 30.7595C33.333 29.8246 32.4747 29.1416 31.5725 29.3118C27.4424 30.091 24.7234 30.082 20.5919 29.3091C19.6895 29.1402 18.833 29.824 18.833 30.7581C18.833 31.0163 18.6237 31.2256 18.3655 31.2256H18.083C17.2546 31.2256 16.583 31.8972 16.583 32.7256V33.5996C16.583 34.4279 17.2545 35.0996 18.083 35.0996H18.333C18.6092 35.0996 18.833 35.3235 18.833 35.5996V35.9776C18.833 36.6629 19.3001 37.267 19.9727 37.4284ZM19.9727 37.4284L20.0894 36.9422L19.9727 37.4284ZM8.58301 9.82024C8.58301 8.43953 9.7023 7.32024 11.083 7.32024H41.083C42.4638 7.32024 43.583 8.43952 43.583 9.82024V39.8202C43.583 41.201 42.4638 42.3202 41.083 42.3202H11.083C9.70229 42.3202 8.58301 41.201 8.58301 39.8202V9.82024ZM21.583 14.0579C21.8592 14.0579 22.083 14.2818 22.083 14.5579V16.7981C22.083 17.0743 21.8592 17.2981 21.583 17.2981C21.3069 17.2981 21.083 17.0743 21.083 16.7981V14.5579C21.083 14.2818 21.3069 14.0579 21.583 14.0579ZM21.583 23.0579C21.8592 23.0579 22.083 23.2818 22.083 23.5579V25.7981C22.083 26.0743 21.8592 26.2981 21.583 26.2981C21.3069 26.2981 21.083 26.0743 21.083 25.7981V23.5579C21.083 23.2818 21.3069 23.0579 21.583 23.0579ZM21.583 32.0579C21.8592 32.0579 22.083 32.2818 22.083 32.5579V34.7981C22.083 35.0743 21.8592 35.2981 21.583 35.2981C21.3069 35.2981 21.083 35.0743 21.083 34.7981V32.5579C21.083 32.2818 21.3069 32.0579 21.583 32.0579Z" fill="#2273FF" stroke="white"/>
</svg>
