<svg width="36" height="36" viewBox="0 0 36 36" fill="none" xmlns="http://www.w3.org/2000/svg">
<path fill-rule="evenodd" clip-rule="evenodd" d="M3 0C1.34315 0 0 1.34315 0 3V33C0 34.6569 1.34315 36 3 36H33C34.6569 36 36 34.6569 36 33V3C36 1.34315 34.6569 0 33 0H3ZM22.0555 8.2778C22.0555 10.6403 20.1403 12.5555 17.7777 12.5555C15.4152 12.5555 13.5 10.6403 13.5 8.2778C13.5 5.9152 15.4152 4 17.7777 4C20.1403 4 22.0555 5.9152 22.0555 8.2778ZM21.6667 17.3098C23.028 17.1157 24.4573 16.822 26.0357 16.4315C27.108 16.1663 27.7622 15.082 27.497 14.0098C27.2317 12.9375 26.1475 12.2833 25.0752 12.5486C22.1306 13.277 19.9341 13.5983 17.7852 13.5901C15.6305 13.5819 13.4266 13.2423 10.4585 12.5433C9.3833 12.2901 8.3065 12.9564 8.0533 14.0316C7.8 15.1067 8.4664 16.1836 9.5415 16.4368C11.1094 16.806 12.532 17.0938 13.8889 17.2896V18.7776H21.6667V17.3098ZM13.8889 20.3332V21.8422C13.8889 22.3348 14.3326 23.5999 15.6938 24.2061C15.8496 24.2754 16.0247 24.3624 16.1821 24.4405L16.2747 24.4864C16.468 24.582 16.6552 24.6724 16.8445 24.7526C17.2392 24.9198 17.547 24.9997 17.7778 24.9997C18.0085 24.9997 18.3164 24.9198 18.7111 24.7526C18.9004 24.6724 19.0875 24.582 19.2809 24.4864L19.3735 24.4405C19.5309 24.3624 19.706 24.2754 19.8618 24.2061C21.223 23.5999 21.6667 22.3348 21.6667 21.8422V20.3332H13.8889ZM11.2248 28.1027C11.2248 26.3596 11.8893 25.0388 13.096 23.9884C13.4675 24.6164 14.0851 25.2481 15.0045 25.666C14.8665 25.7965 14.7344 25.9478 14.6095 26.1337C14.2204 26.7129 13.8861 27.4285 13.8861 28.1027C13.8861 28.719 14.1389 29.2492 14.3305 29.6508L14.3444 29.6802C14.5559 30.124 14.6895 30.4226 14.6895 30.7384C14.6895 31.4482 14.0795 31.9997 13.3589 31.9997C12.6872 31.9997 12.1558 31.5524 11.76 30.6866C11.3735 29.8411 11.2248 28.7979 11.2248 28.1027ZM20.551 25.6656C21.4704 25.2477 22.088 24.616 22.4595 23.988C23.6662 25.0384 24.3307 26.3592 24.3307 28.1022C24.3307 28.7975 24.182 29.8407 23.7955 30.6862C23.3997 31.552 22.8682 31.9993 22.1966 31.9993C21.476 31.9993 20.8659 31.4478 20.8659 30.7379C20.8659 30.4222 20.9996 30.1235 21.211 29.6797L21.225 29.6504C21.4165 29.2487 21.6694 28.7185 21.6694 28.1022C21.6694 27.428 21.335 26.7125 20.946 26.1332C20.8211 25.9473 20.689 25.7961 20.551 25.6656Z" fill="#2273FF"/>
</svg>
