<svg width="48" height="48" viewBox="0 0 48 48" fill="none" xmlns="http://www.w3.org/2000/svg">
<path d="M37.5063 24.8376C37.5149 24.8458 37.5243 24.8547 37.5342 24.8642C37.5972 24.9247 37.6855 25.0117 37.79 25.1207C37.9984 25.338 38.2748 25.6465 38.5435 26.0091C38.8108 26.3698 39.0803 26.7972 39.2644 27.2521C39.4474 27.7042 39.5604 28.2195 39.466 28.7366L39.466 28.7367C39.3678 29.2739 39.0552 29.6882 38.6936 29.9971C38.334 30.3043 37.902 30.5287 37.5047 30.6912C37.1043 30.855 36.7173 30.9646 36.4327 31.0332C36.4085 31.039 36.3851 31.0445 36.3624 31.0498C36.2794 33.0441 35.5881 34.4264 34.5228 35.3327C33.4046 36.2841 31.9445 36.6505 30.5528 36.7409C29.1558 36.8316 27.7713 36.6479 26.7454 36.4458C26.3211 36.3622 25.9548 36.2748 25.6701 36.2007V41.5H39C40.3808 41.5 41.5 40.3808 41.5 39V9C41.5 7.61929 40.3808 6.5 39 6.5H9C7.61929 6.5 6.5 7.61929 6.5 9V39C6.5 40.3808 7.61929 41.5 9 41.5H13.889V31.0106C10.8748 28.7005 8.5 25.5529 8.5 21.4498C8.5 18.0071 9.93688 14.7108 12.486 12.2843C15.0341 9.85869 18.4851 8.50001 22.0787 8.50001M37.5063 24.8376L22.0787 8.50001M37.5063 24.8376C36.8709 23.4744 36.8828 22.3188 36.9039 20.8896L36.904 20.8863C36.9101 20.4759 36.9165 20.0413 36.9058 19.5819L36.9057 19.5812C36.8545 17.5232 36.1815 15.525 34.9702 13.8255L34.9604 13.8117L34.9496 13.7987C33.6327 12.1926 31.9082 10.9361 29.9417 10.1463M37.5063 24.8376L29.9417 10.1463M22.0787 8.50001C24.7936 8.49715 27.4771 9.05875 29.9417 10.1463M22.0787 8.50001C22.0785 8.50001 22.0783 8.50001 22.0782 8.50001L29.9417 10.1463" fill="#2273FF" stroke="white"/>
<path d="M26.2695 22.4547C26.9136 22.4547 26.7094 22.2657 27.2414 21.9122C27.7815 22.265 28.419 22.4499 29.0694 22.4426L31.1356 21.7109C31.7178 21.2438 32.1175 20.5963 32.2677 19.8767C32.4179 19.1571 32.3097 18.4092 31.9611 17.758C31.6124 17.1068 31.0445 16.5919 30.3524 16.2995C30.1943 15.6028 29.7963 14.9797 29.2242 14.5335L27.2074 13.8466H26.9803C26.5317 13.2097 25.8582 12.7553 25.0879 12.5699L21.5971 12.3333C20.8783 12.3915 20.2006 12.6832 19.6729 13.1616C19.4235 13.1044 19.1684 13.0748 18.9122 13.0732C18.2919 13.0745 17.6852 13.2504 17.1655 13.5798C16.6457 13.9091 16.2349 14.3779 15.9829 14.9294L14.3399 16.062C13.9311 16.6011 13.711 17.2537 13.7121 17.9236C13.7081 18.2038 13.7463 18.483 13.8256 18.7523C13.3946 19.2966 13.1628 19.9655 13.1671 20.6527C13.1661 21.4497 13.479 22.2168 14.0414 22.7961C14.0868 23.3667 14.2916 23.9144 14.6339 24.3798C14.9761 24.8453 15.4426 25.2108 15.9829 25.4368C16.6055 25.8166 17.1326 26.3274 17.5256 26.9316C17.9186 27.5358 18.0808 28.2181 18.1671 28.9282H21.5971V25.6136C21.5963 25.025 21.765 24.4481 22.0841 23.9481C22.4032 23.4482 22.582 23.0453 23.1245 22.7851C23.6328 22.5958 24.0907 22.2974 24.4642 21.9122C24.9962 22.2657 25.6254 22.4547 26.2695 22.4547Z" fill="white"/>
<path d="M32.333 25.2501C32.333 25.9404 31.7733 26.5001 31.083 26.5001C30.3926 26.5001 29.833 25.9404 29.833 25.2501C29.833 24.5597 30.3926 24.0001 31.083 24.0001C31.7733 24.0001 32.333 24.5597 32.333 25.2501Z" fill="white"/>
<path fill-rule="evenodd" clip-rule="evenodd" d="M21.5003 32.3333H18.167V30.3333H21.5003V32.3333Z" fill="white"/>
<path fill-rule="evenodd" clip-rule="evenodd" d="M21.5003 35.6666H18.167V33.6666H21.5003V35.6666Z" fill="white"/>
<path fill-rule="evenodd" clip-rule="evenodd" d="M21.5003 39.0001H18.167V37.0001H21.5003V39.0001Z" fill="white"/>
</svg>
