<svg width="36" height="36" viewBox="0 0 36 36" fill="none" xmlns="http://www.w3.org/2000/svg">
<path fill-rule="evenodd" clip-rule="evenodd" d="M0 3C0 1.34315 1.34315 0 3 0H33C34.6569 0 36 1.34315 36 3V33C36 34.6569 34.6569 36 33 36H3C1.34315 36 0 34.6569 0 33V3ZM22.5 8.5C22.5 10.9853 20.4853 13 18 13C15.5147 13 13.5 10.9853 13.5 8.5C13.5 6.0147 15.5147 4 18 4C20.4853 4 22.5 6.0147 22.5 8.5ZM7 16C7 15.4477 7.4477 15 8 15H28C28.5523 15 29 15.4477 29 16V31C29 31.5523 28.5523 32 28 32H23C23 31.4027 22.7273 30.8603 22.4298 30.4438C22.119 30.0086 21.7038 29.602 21.2498 29.2552C20.6213 28.7753 19.8253 28.3413 19 28.132V25.1465H20.4C21.3909 25.1465 22.6372 25.5421 23.7118 25.9948C24.2329 26.2143 24.6842 26.4344 25.0047 26.5995C25.1646 26.6818 25.291 26.7499 25.376 26.7967C25.4186 26.82 25.4507 26.838 25.4715 26.8498L25.494 26.8626L25.4987 26.8653C25.4986 26.8652 25.4988 26.8653 26 26C26.5012 25.1347 26.5011 25.1346 26.5009 25.1345L26.4995 25.1337L26.4967 25.132L26.4875 25.1268L26.4555 25.1086C26.4282 25.0932 26.3892 25.0714 26.3396 25.0441C26.2403 24.9895 26.0979 24.9128 25.9203 24.8213C25.5658 24.6388 25.0671 24.3955 24.4882 24.1517C23.3628 23.6776 21.8091 23.1465 20.4 23.1465H19V21H19.8C20.5489 21 21.4846 21.2145 22.285 21.457C22.6741 21.5749 23.0109 21.6931 23.2496 21.7815C23.3686 21.8256 23.4626 21.862 23.5256 21.8869C23.5492 21.8963 23.5684 21.904 23.5829 21.9099C23.5878 21.9118 23.5922 21.9136 23.596 21.9152L23.6124 21.9218L23.6156 21.9232C23.6155 21.9231 23.6154 21.9231 24 21C24.3846 20.0769 24.3845 20.0769 24.3843 20.0768L24.3809 20.0754L24.3737 20.0724L24.3492 20.0624C24.3284 20.0539 24.2988 20.042 24.2611 20.0271C24.1859 19.9974 24.0782 19.9557 23.9442 19.906C23.6766 19.8069 23.3009 19.6751 22.865 19.543C22.0154 19.2855 20.8511 19 19.8 19H19V17H17V19H15.9C14.6996 19 13.6077 19.284 12.8314 19.5564C12.4395 19.6939 12.1185 19.8319 11.8923 19.937C11.7791 19.9897 11.689 20.0345 11.6251 20.0672C11.5932 20.0836 11.5677 20.097 11.5492 20.1069L11.5265 20.1192L11.5191 20.1232L11.5164 20.1247L11.5153 20.1253C11.5151 20.1255 11.5144 20.1258 12 21C12.4856 21.8742 12.4854 21.8743 12.4852 21.8744L12.4923 21.8706C12.5011 21.8659 12.5164 21.8578 12.5378 21.8468C12.5805 21.8249 12.6475 21.7915 12.7358 21.7505C12.9128 21.6681 13.173 21.5561 13.4936 21.4436C14.1423 21.216 15.0004 21 15.9 21H17V23.1465H15.2C13.5905 23.1465 12.1347 23.6754 11.1116 24.1745C10.594 24.4269 10.1714 24.6795 9.8758 24.8706C9.7276 24.9664 9.6104 25.0474 9.5281 25.1061C9.4869 25.1354 9.4544 25.1593 9.431 25.1766L9.4029 25.1978L9.394 25.2045L9.391 25.2069L9.3897 25.2078C9.3895 25.208 9.3888 25.2085 10 26C10.6112 26.7914 10.611 26.7916 10.6108 26.7918L10.6242 26.7817C10.6374 26.7719 10.6592 26.756 10.6891 26.7346C10.749 26.6919 10.8411 26.6281 10.9617 26.5501C11.2036 26.3938 11.556 26.1829 11.9884 25.972C12.8653 25.5443 14.0095 25.1465 15.2 25.1465H17V28.1644C16.1707 28.39 15.3693 28.8145 14.7267 29.2983C14.278 29.6361 13.8677 30.0315 13.5605 30.4598C13.2638 30.8734 13 31.407 13 32H8C7.4477 32 7 31.5523 7 31V16ZM20.9704 31.899C20.9956 31.9619 20.9994 31.9944 20.9999 32H15C15.0001 31.9977 15.0019 31.9661 15.0278 31.9008C15.0556 31.8308 15.1051 31.7378 15.1856 31.6255C15.3485 31.3985 15.6023 31.1425 15.9296 30.896C16.5878 30.4005 17.3896 30.0561 18.0338 30.0004C18.5874 30.0129 19.3594 30.3282 20.0359 30.8448C20.3676 31.098 20.631 31.3664 20.8023 31.6062C20.8872 31.725 20.9403 31.8241 20.9704 31.899Z" fill="#2273FF"/>
</svg>
