<svg width="48" height="49" viewBox="0 0 48 49" fill="none" xmlns="http://www.w3.org/2000/svg">
<path fill-rule="evenodd" clip-rule="evenodd" d="M26.1849 37.1489C25.5568 36.7385 24.8063 36.5 24 36.5C21.7909 36.5 20 38.2909 20 40.5C20 42.7091 21.7909 44.5 24 44.5C26.1991 44.5 27.9836 42.7254 27.9999 40.5302L28.2234 36.5122H29.7765L30.0001 40.5302C30.0163 42.7254 31.8009 44.5 34 44.5C36.2091 44.5 38 42.7091 38 40.5C38 38.2909 36.2091 36.5 34 36.5C33.1937 36.5 32.4432 36.7385 31.8151 37.1489L29.9985 4.5L29 4.55555L28.0015 4.5L26.1849 37.1489ZM29.6653 34.5122L29 22.5558L28.3347 34.5122H29.6653ZM30 18.5362C30 19.0877 29.5523 19.5348 29 19.5348C28.4477 19.5348 28 19.0877 28 18.5362C28 17.9847 28.4477 17.5376 29 17.5376C29.5523 17.5376 30 17.9847 30 18.5362ZM22 40.5C22 39.3954 22.8954 38.5 24 38.5C25.1046 38.5 26 39.3954 26 40.5C26 41.6046 25.1046 42.5 24 42.5C22.8954 42.5 22 41.6046 22 40.5ZM34 38.5C32.8954 38.5 32 39.3954 32 40.5C32 41.6046 32.8954 42.5 34 42.5C35.1046 42.5 36 41.6046 36 40.5C36 39.3954 35.1046 38.5 34 38.5Z" fill="#2273FF"/>
<path d="M15.0003 15.5V4.5C15.0003 4.5 11.5223 6.76067 11.0526 15.498C10.9933 16.601 11.8957 17.5 13.0003 17.5C14.1049 17.5 15.0003 16.6046 15.0003 15.5Z" fill="#2273FF"/>
<path d="M12 21C12 20.1716 12.6716 19.5 13.5 19.5C14.3284 19.5 15 20.1716 15 21V21.0858L12 24.0858V21Z" fill="#2273FF"/>
<path d="M12 26.9142V28.5858L15 25.5858V23.9142L12 26.9142Z" fill="#2273FF"/>
<path d="M12 33.0858V31.4142L15 28.4142V30.0858L12 33.0858Z" fill="#2273FF"/>
<path d="M12 35.9142V43C12 43.8284 12.6716 44.5 13.5 44.5C14.3284 44.5 15 43.8284 15 43V32.9142L12 35.9142Z" fill="#2273FF"/>
</svg>
